HIERARCHY
ROOT hip
{
	OFFSET 0.000000 0.000000 0.000000 
	CHANNELS 6 Xposition Yposition Zposition Xrotation Zrotation Yrotation
	JOINT abdomen
	{
		OFFSET 0.000000 3.402643 0.000000 
		CHANNELS 3 Xrotation Zrotation Yrotation
		JOINT chest
		{
			OFFSET 0.000000 8.438565 -0.680529 
			CHANNELS 3 Xrotation Zrotation Yrotation
			JOINT neck
			{
				OFFSET 0.000000 10.207942 -0.272212 
				CHANNELS 3 Xrotation Zrotation Yrotation
				JOINT head
				{
					OFFSET 0.000000 3.130431 0.000000 
					CHANNELS 3 Xrotation Zrotation Yrotation
					End Site
					{
						OFFSET 0.000000 3.130435 0.000000 
					}
				}
			}
			JOINT lCollar
			{
				OFFSET 3.470700 6.669187 -0.816635 
				CHANNELS 3 Yrotation Zrotation Xrotation
				JOINT lShldr
				{
					OFFSET 3.198488 0.000000 0.000000 
					CHANNELS 3 Zrotation Yrotation Xrotation
					JOINT lForeArm
					{
						OFFSET 10.139888 0.000000 0.000000 
						CHANNELS 3 Yrotation Zrotation Xrotation
						JOINT lHand
						{
							OFFSET 8.370511 0.000000 0.000000 
							CHANNELS 3 Zrotation Yrotation Xrotation
							End Site
							{
								OFFSET 4.083176 0.000000 0.000000 
							}
						}
					}
				}
			}
			JOINT rCollar
			{
				OFFSET -3.470700 6.669187 -0.816635 
				CHANNELS 3 Yrotation Zrotation Xrotation
				JOINT rShldr
				{
					OFFSET -3.198488 0.000000 0.000000 
					CHANNELS 3 Zrotation Yrotation Xrotation
					JOINT rForeArm
					{
						OFFSET -10.139888 0.000000 0.000000 
						CHANNELS 3 Yrotation Zrotation Xrotation
						JOINT rHand
						{
							OFFSET -8.370511 0.000000 0.000000 
							CHANNELS 3 Zrotation Yrotation Xrotation
							End Site
							{
								OFFSET -4.083176 0.000000 0.000000 
							}
						}
					}
				}
			}
		}
	}
	JOINT lThigh
	{
		OFFSET 5.308129 -1.633274 1.361059 
		CHANNELS 3 Xrotation Zrotation Yrotation
		JOINT lShin
		{
			OFFSET -2.041588 -20.007561 0.000000 
			CHANNELS 3 Xrotation Zrotation Yrotation
			JOINT lFoot
			{
				OFFSET 0.000000 -19.190928 -1.224953 
				CHANNELS 3 Xrotation Yrotation Zrotation
				End Site
				{
					OFFSET 0.000000 -2.449906 4.627600 
				}
			}
		}
	}
	JOINT rThigh
	{
		OFFSET -5.308129 -1.633274 1.361059 
		CHANNELS 3 Xrotation Zrotation Yrotation
		JOINT rShin
		{
			OFFSET 2.041588 -20.007561 0.000000 
			CHANNELS 3 Xrotation Zrotation Yrotation
			JOINT rFoot
			{
				OFFSET 0.000000 -19.190928 -1.224953 
				CHANNELS 3 Xrotation Yrotation Zrotation
				End Site
				{
					OFFSET 0.000000 -2.449906 4.627600 
				}
			}
		}
	}
}
MOTION
Frames: 8
Frame Time: 0.016667
-0.702847 47.730919 2.957226 14.938098 -2.450955 0.762275 3.552398 0.807462 -5.000466 -15.677984 10.947829 -3.410984 -3.061726 5.235996 11.455155 0.223026 -12.043131 13.655458 0.774506 -2.472825 -0.156090 -90.897552 -1.145572 -8.840749 -50.851116 4.243364 57.961975 -10.994223 14.251082 -2.765008 5.987262 -6.832729 -0.155453 81.435295 -27.722591 -11.324871 37.956173 -4.368200 55.323872 6.109766 -11.161164 -2.111996 -5.185257 5.292560 7.420045 39.968029 -0.809347 -2.795207 24.915581 -16.414753 -5.076485 -31.199400 2.343481 0.587418 22.203554 1.141657 1.834376 -0.880038 -1.347189 11.701003 
-0.905784 47.718800 3.477550 14.143598 -2.732381 2.189667 5.912746 0.349864 -5.634839 -17.181721 11.818065 -3.970207 -3.359162 4.899685 10.959321 0.233078 -11.691619 13.038548 0.862819 -2.648551 -0.136557 -90.773247 -0.775997 -8.232495 -50.630455 4.246712 57.927700 -12.171938 13.790841 -3.019846 5.899127 -6.920382 -0.155464 81.475510 -26.637419 -12.232642 35.735535 -4.634826 59.101429 -1.767537 -0.015484 -0.185159 -7.743323 6.454214 6.876087 45.407131 -0.539986 -3.228254 27.032326 -16.260773 -4.278867 -30.276600 2.235406 0.101936 23.254404 1.307357 1.819994 -1.942691 -2.250777 11.761832 
-0.999177 47.722134 3.991393 13.649069 -2.856882 3.197174 7.572701 0.340029 -5.830149 -18.237970 12.008966 -4.242269 -3.757213 4.716994 10.368126 0.313625 -11.614431 12.414622 0.774252 -2.736363 -0.146304 -90.552376 -0.400907 -7.105880 -50.181847 4.240849 57.258053 -10.614667 14.276490 -2.682236 5.917277 -6.825476 -0.087962 81.550369 -25.409344 -12.328986 35.624001 -4.616599 59.153343 -2.740592 1.649868 -0.254696 -10.660319 6.950071 6.260128 50.316898 -0.228202 -3.335282 26.571270 -14.405079 -5.403454 -29.422970 2.158212 -0.938174 23.956949 1.323803 1.868823 -2.865636 -2.241912 11.877871 
-1.092570 47.725468 4.505207 13.159894 -2.980252 4.204700 9.230674 0.349620 -6.025456 -19.296627 12.179841 -4.523903 -4.151380 4.533086 9.777055 0.401969 -11.525466 11.802197 0.686136 -2.824029 -0.146296 -90.330223 -0.034628 -5.986232 -49.736134 4.238021 56.587574 -9.053746 14.761995 -2.334341 5.926590 -6.719759 -0.009647 81.629684 -24.188606 -12.427064 35.511780 -4.604253 59.198097 -3.725048 3.304470 -0.351547 -13.602924 7.431337 5.612489 55.226212 0.065674 -3.389441 26.159422 -12.543163 -6.507854 -28.561388 2.080452 -1.970450 24.659204 1.352829 1.910710 -3.781927 -2.247849 11.977952 
-1.117181 47.777596 5.231924 13.034466 -2.980364 4.175443 9.604154 0.349864 -5.634839 -19.462828 12.008664 -4.261370 -4.287961 4.243945 9.019139 0.228202 -11.345331 11.017494 0.686136 -2.824029 -0.146296 -90.262535 0.590591 -5.364001 -49.262188 4.243864 56.758575 -9.318138 14.383877 -2.410248 5.926590 -6.719759 -0.009647 81.749344 -23.147814 -11.334167 35.966934 -4.476804 57.537453 -3.616065 1.114041 -0.177960 -16.067129 7.612947 5.460717 58.300980 0.239036 -3.655014 24.338224 -10.206398 -7.971952 -27.480591 2.059940 -2.127132 24.660551 1.463361 1.738176 -4.464064 -1.947413 11.842406 
-1.141788 47.829720 5.958613 12.909744 -2.970734 4.146185 9.967866 0.350091 -5.244221 -19.641764 11.827248 -4.010438 -4.427174 3.952916 8.252420 0.056969 -11.171659 10.234720 0.686136 -2.824029 -0.146296 -90.194687 1.204536 -4.750021 -48.795872 4.250233 56.933960 -9.593604 14.003337 -2.494654 5.926590 -6.719759 -0.009647 81.890213 -22.106579 -10.241658 36.433331 -4.362658 55.881840 -3.524548 -1.067243 -0.012695 -18.536743 7.798448 5.262842 61.378109 0.386363 -3.859689 22.610239 -7.859306 -9.314462 -26.418526 2.069726 -2.272039 24.670879 1.561006 1.592769 -5.170327 -1.697237 11.689155 
-1.126940 47.912216 6.708030 13.032531 -2.729052 3.578065 9.799132 0.184913 -4.736334 -19.206045 11.572069 -3.387914 -4.657121 3.756091 7.575530 -0.297739 -10.895581 9.547797 0.950710 -2.648760 -0.136554 -90.331154 1.644001 -4.481975 -48.137402 4.204663 57.341713 -10.433067 14.119062 -2.676678 5.746378 -6.547860 -0.048266 81.691628 -20.455923 -8.959518 36.588661 -4.345459 54.854641 -3.524075 -1.331616 -0.016011 -20.870070 7.837339 5.532215 63.490845 0.482729 -3.745485 20.514793 -5.925791 -10.242912 -25.460976 2.069755 -2.029511 24.748180 1.463444 1.752551 -5.793554 -1.217975 11.805840 
-1.112099 47.994709 7.457447 13.160778 -2.477050 3.010486 9.635798 0.038957 -4.218750 -18.765820 11.305488 -2.767420 -4.882325 3.558108 6.898703 -0.651218 -10.626480 8.862914 1.215223 -2.473402 -0.126806 -90.477531 2.074182 -4.226096 -47.480591 4.168890 57.733852 -11.270302 14.224807 -2.851414 5.567491 -6.374773 -0.077275 81.533310 -18.807196 -7.690650 36.733425 -4.328397 53.834587 -3.523768 -1.595389 -0.009580 -23.200384 7.860068 5.802475 65.594917 0.569927 -3.604929 18.448975 -3.954222 -11.056112 -24.503801 2.069814 -1.777400 24.842888 1.371830 1.953047 -6.443017 -0.759257 11.931010 
